<svg width="119" height="119" viewBox="0 0 119 119" fill="none" xmlns="http://www.w3.org/2000/svg">
<circle cx="59.5" cy="59.5" r="59.5" fill="#B5D588"/>
<mask id="mask0_3424_5" style="mask-type:luminance" maskUnits="userSpaceOnUse" x="26" y="20" width="78" height="53">
<path d="M26.8169 20.1127H103.915V72.813H26.8169V20.1127Z" fill="white"/>
</mask>
<g mask="url(#mask0_3424_5)">
<mask id="mask1_3424_5" style="mask-type:luminance" maskUnits="userSpaceOnUse" x="25" y="12" width="80" height="80">
<path d="M25.8638 33.3602L83.844 12.9076L104.297 70.8916L46.3126 91.3405L25.8638 33.3602Z" fill="white"/>
</mask>
<g mask="url(#mask1_3424_5)">
<mask id="mask2_3424_5" style="mask-type:luminance" maskUnits="userSpaceOnUse" x="25" y="12" width="80" height="80">
<path d="M25.8638 33.3602L83.844 12.9076L104.297 70.8916L46.3126 91.3405L25.8638 33.3602Z" fill="white"/>
</mask>
<g mask="url(#mask2_3424_5)">
<path d="M103.035 66.8354L88.7694 32.5024C88.3272 31.4274 87.7897 30.4057 87.1569 29.4297C86.524 28.4576 85.8073 27.5503 85.0106 26.7078C84.21 25.8653 83.3408 25.1029 82.403 24.4205C81.4652 23.7343 80.4702 23.1434 79.4219 22.644C78.3773 22.1408 77.2908 21.7405 76.17 21.4393C75.0492 21.1343 73.9094 20.9399 72.7543 20.8446C71.5953 20.7531 70.4402 20.7645 69.2851 20.8827C68.13 21.0009 66.994 21.2258 65.8808 21.5537L30.1945 31.9763C27.7699 32.6892 27.0037 34.8774 27.3163 36.6196C27.6251 38.358 29.1042 40.1536 31.6241 39.9858L64.1958 37.7404C65.4576 37.6565 66.7081 37.7328 67.9508 37.973C69.1936 38.2131 70.383 38.6058 71.5267 39.1509C72.6666 39.6961 73.7188 40.3785 74.6832 41.1943C75.6477 42.0101 76.4941 42.9365 77.2222 43.9734L95.9098 70.7467C97.1678 72.5499 99.1006 72.8015 100.599 72.2716C100.816 72.1954 101.026 72.1001 101.228 71.9895C102.776 71.1356 104.003 69.1685 103.035 66.8354ZM31.4907 38.0645C30.0573 38.1636 29.3634 37.1648 29.2071 36.2803C29.0546 35.4302 29.3291 34.3094 30.5833 33.8672C30.6329 33.8481 30.6825 33.8329 30.732 33.8138L42.2145 30.4591L43.4725 37.2334L31.4907 38.0645ZM44.5056 37.1686L43.2018 30.1731L46.6328 29.1705L48.0739 36.9246L44.5056 37.1686ZM47.6164 28.877L51.0474 27.8744L52.6714 36.6044L49.0955 36.856L47.6164 28.877ZM78.7928 42.8717C77.9732 41.7013 77.0163 40.653 75.926 39.7304C74.8319 38.804 73.6425 38.034 72.3502 37.4164C71.0616 36.7988 69.7159 36.3566 68.3092 36.0859C66.9063 35.8152 65.4881 35.7276 64.0624 35.8229L53.7007 36.5358L52.0424 27.5999L51.9471 27.6189L66.4183 23.3874C67.4209 23.0938 68.4388 22.8956 69.4795 22.7888C70.5165 22.6821 71.5572 22.6707 72.598 22.7545C73.6387 22.8384 74.6642 23.0138 75.6706 23.2844C76.677 23.5589 77.653 23.9211 78.5946 24.3709C79.5362 24.8208 80.4283 25.3545 81.2746 25.9682C82.1171 26.582 82.8986 27.2682 83.6191 28.0268C84.3358 28.7817 84.9801 29.6013 85.5481 30.4743C86.1161 31.3511 86.6003 32.2699 87.0006 33.2344L92.5664 46.6344L84.4692 50.9956L78.7928 42.8717ZM85.0563 51.8419L92.9591 47.5836L94.3315 50.885L87.1035 54.7735L85.0563 51.8419ZM87.6944 55.6236L94.7242 51.8342L96.0966 55.1318L89.7416 58.5514L87.6944 55.6236ZM100.301 70.3083C99.5161 70.7391 98.3038 70.8268 97.4804 69.6488L90.3325 59.4015L96.4892 56.0849L101.27 67.5673C101.815 68.8978 101.091 69.8737 100.305 70.3045L100.301 70.3083Z" fill="black"/>
</g>
</g>
</g>
<path d="M30.1672 61.976C30.1672 61.5067 30.2792 60.8507 30.5032 60.008C30.7272 59.1547 31.0418 58.1627 31.4472 57.032C32.1085 55.2293 32.7272 53.7307 33.3032 52.536C33.8898 51.3307 34.4605 50.392 35.0152 49.72C35.1432 49.7413 35.2978 49.7947 35.4792 49.88C35.6712 49.9653 35.8578 50.0613 36.0392 50.168C36.2205 50.264 36.3805 50.3653 36.5192 50.472C36.6685 50.5787 36.7645 50.664 36.8072 50.728C35.9752 51.7093 35.2445 52.7653 34.6152 53.896C33.9858 55.0267 33.4098 56.3227 32.8872 57.784C32.4392 59.0427 32.0978 60.1787 31.8632 61.192C31.6285 62.1947 31.5112 63.032 31.5112 63.704C31.5112 63.8853 31.5112 63.9973 31.5112 64.04C31.5112 64.0827 31.5165 64.1253 31.5272 64.168C31.3778 64.1467 31.2498 64.1093 31.1432 64.056C31.0365 64.0027 30.9672 63.9387 30.9352 63.864C30.9138 63.8107 30.8552 63.7307 30.7592 63.624C30.6632 63.528 30.5778 63.4533 30.5032 63.4C30.4072 63.336 30.3272 63.1707 30.2632 62.904C30.1992 62.6267 30.1672 62.3173 30.1672 61.976ZM35.7899 63.56C35.1819 63.496 34.6966 63.2293 34.3339 62.76C33.9713 62.2907 33.7899 61.6933 33.7899 60.968C33.7899 60.5413 33.8539 60.0987 33.9819 59.64C34.1099 59.1813 34.2913 58.7387 34.5259 58.312C34.7606 57.8747 35.0379 57.464 35.3579 57.08C35.6779 56.696 36.0246 56.3653 36.3979 56.088C36.9846 55.6507 37.5339 55.432 38.0459 55.432C38.3873 55.6133 38.7233 55.992 39.0539 56.568C39.1073 56.568 39.1553 56.568 39.1979 56.568C39.2406 56.5573 39.2886 56.552 39.3419 56.552C39.9073 56.552 40.1899 57.0533 40.1899 58.056C40.1899 58.728 40.0779 59.368 39.8539 59.976C39.6406 60.5733 39.3366 61.1173 38.9419 61.608C38.5579 62.0987 38.0939 62.5147 37.5499 62.856C37.0166 63.1867 36.4299 63.4213 35.7899 63.56ZM36.6059 58.52C36.4246 58.7653 36.2539 59.032 36.0939 59.32C35.9339 59.608 35.7953 59.9013 35.6779 60.2C35.5606 60.488 35.4699 60.7707 35.4059 61.048C35.3419 61.3147 35.3099 61.5547 35.3099 61.768C35.3099 62.024 35.3526 62.2693 35.4379 62.504C35.5233 62.7387 35.6193 62.872 35.7259 62.904C36.2059 62.7973 36.6433 62.6 37.0379 62.312C37.4433 62.0133 37.7899 61.6453 38.0779 61.208C38.3766 60.7707 38.6059 60.2747 38.7659 59.72C38.9366 59.1653 39.0219 58.5733 39.0219 57.944C39.0219 57.6667 39.0059 57.448 38.9739 57.288C38.9419 57.128 38.8886 56.9893 38.8139 56.872C38.3446 57.0107 37.9233 57.2347 37.5499 57.544C37.1873 57.8533 36.8726 58.1787 36.6059 58.52ZM46.4844 56.632C46.4738 56.8347 46.4364 57.048 46.3724 57.272C46.3191 57.4853 46.2498 57.6827 46.1644 57.864C46.0791 58.0347 45.9884 58.1787 45.8924 58.296C45.7964 58.4133 45.7058 58.472 45.6204 58.472C45.5031 58.4613 45.4338 58.3813 45.4124 58.232C45.4124 58.2 45.4231 58.152 45.4444 58.088C45.4764 58.0133 45.5084 57.9333 45.5404 57.848C45.5724 57.7627 45.5991 57.6773 45.6204 57.592C45.6524 57.5067 45.6684 57.432 45.6684 57.368C45.6684 57.2187 45.6311 57.096 45.5564 57C45.4924 56.8933 45.4018 56.84 45.2844 56.84C44.8578 56.84 44.5324 57.1067 44.3084 57.64C44.0844 58.1733 43.9724 58.9573 43.9724 59.992C43.9724 60.0987 43.9778 60.1627 43.9884 60.184C44.2124 60.1733 44.4098 60.168 44.5804 60.168C44.7618 60.1573 44.9378 60.152 45.1084 60.152C45.1191 60.1733 45.1244 60.216 45.1244 60.28C45.1244 60.376 45.1031 60.4453 45.0604 60.488C44.8151 60.5413 44.6178 60.5893 44.4684 60.632C44.3298 60.664 44.2231 60.696 44.1484 60.728C44.0738 60.76 44.0258 60.7973 44.0044 60.84C43.9938 60.872 43.9884 60.92 43.9884 60.984C43.9884 61.0693 43.9884 61.1547 43.9884 61.24C43.9991 61.3253 44.0044 61.432 44.0044 61.56C44.0044 62.456 43.7591 63.176 43.2684 63.72C42.7884 64.264 42.1164 64.5787 41.2524 64.664C41.1031 64.6533 40.9484 64.6107 40.7884 64.536C40.6284 64.4613 40.4738 64.3653 40.3244 64.248C40.1858 64.1307 40.0631 63.9973 39.9564 63.848C39.8498 63.7093 39.7751 63.5653 39.7324 63.416C39.7324 63.0107 39.8178 62.6267 39.9884 62.264C40.1591 61.8907 40.3884 61.5653 40.6764 61.288C40.9751 61 41.3218 60.7707 41.7164 60.6C42.1218 60.4187 42.5591 60.312 43.0284 60.28C43.0284 60.0133 43.0018 59.752 42.9484 59.496C42.8951 59.24 42.8364 58.9947 42.7724 58.76C42.7191 58.5147 42.6658 58.28 42.6124 58.056C42.5591 57.8213 42.5324 57.592 42.5324 57.368C42.5324 57.08 42.5911 56.7973 42.7084 56.52C42.8258 56.232 42.9804 55.9707 43.1724 55.736C43.3644 55.4907 43.5884 55.2827 43.8444 55.112C44.1004 54.9413 44.3671 54.824 44.6444 54.76C44.7618 54.792 44.9164 54.888 45.1084 55.048C45.3111 55.1973 45.5084 55.368 45.7004 55.56C45.8924 55.752 46.0631 55.9493 46.2124 56.152C46.3618 56.344 46.4524 56.504 46.4844 56.632ZM41.2044 63.928C41.4604 63.8213 41.7004 63.6667 41.9244 63.464C42.1591 63.2613 42.3618 63.032 42.5324 62.776C42.7031 62.52 42.8364 62.248 42.9324 61.96C43.0391 61.672 43.0924 61.3893 43.0924 61.112C42.8791 61.144 42.6444 61.2453 42.3884 61.416C42.1324 61.576 41.8924 61.7733 41.6684 62.008C41.4444 62.232 41.2578 62.4667 41.1084 62.712C40.9591 62.9573 40.8844 63.1707 40.8844 63.352C40.8844 63.5867 40.9911 63.7787 41.2044 63.928ZM47.4397 56.872C47.3863 56.808 47.3383 56.6747 47.2957 56.472C47.253 56.2587 47.2317 56.0773 47.2317 55.928C47.509 55.9493 47.7757 55.9707 48.0317 55.992C48.2877 56.0027 48.5223 56.0133 48.7357 56.024C48.8957 55.704 49.0663 55.3893 49.2477 55.08C49.4397 54.76 49.621 54.472 49.7917 54.216C49.973 53.9493 50.1383 53.7253 50.2877 53.544C50.4477 53.3627 50.5703 53.2453 50.6557 53.192C50.7623 53.192 50.8957 53.2133 51.0557 53.256C51.2263 53.288 51.397 53.336 51.5677 53.4C51.7383 53.4533 51.893 53.512 52.0317 53.576C52.1703 53.64 52.2663 53.704 52.3197 53.768C51.9997 54.1733 51.7223 54.552 51.4877 54.904C51.2637 55.2453 51.0183 55.64 50.7517 56.088C50.965 56.088 51.1783 56.0827 51.3917 56.072C51.6157 56.0613 51.8397 56.0453 52.0637 56.024C52.117 56.0773 52.1597 56.1467 52.1917 56.232C52.2237 56.3067 52.2397 56.3867 52.2397 56.472C51.717 56.664 51.0823 56.7707 50.3357 56.792C50.069 57.304 49.829 57.816 49.6157 58.328C49.413 58.8293 49.237 59.3147 49.0877 59.784C48.949 60.2533 48.837 60.696 48.7517 61.112C48.677 61.528 48.6397 61.9013 48.6397 62.232C48.6397 62.7013 48.8157 62.9627 49.1677 63.016C49.4877 62.9733 49.7917 62.8933 50.0797 62.776C50.3677 62.6587 50.6237 62.5093 50.8477 62.328C50.9117 62.424 50.949 62.504 50.9597 62.568C50.8957 62.664 50.7837 62.776 50.6237 62.904C50.4743 63.032 50.309 63.1547 50.1277 63.272C49.9463 63.4 49.7703 63.5067 49.5997 63.592C49.429 63.6773 49.301 63.7253 49.2157 63.736C48.949 63.7253 48.6823 63.6667 48.4157 63.56C48.149 63.4533 47.9037 63.32 47.6797 63.16C47.4663 63 47.2903 62.824 47.1517 62.632C47.013 62.4293 46.9437 62.232 46.9437 62.04C46.9437 61.784 46.9757 61.464 47.0397 61.08C47.1143 60.6853 47.2157 60.2587 47.3437 59.8C47.4717 59.3413 47.621 58.8613 47.7917 58.36C47.9623 57.8587 48.149 57.3627 48.3517 56.872H47.4397ZM63.8372 57.688C63.4532 57.688 63.1758 57.6293 63.0052 57.512C62.8345 57.384 62.7492 57.1867 62.7492 56.92C62.7492 56.7493 62.7812 56.552 62.8452 56.328C63.0478 56.36 63.2398 56.3813 63.4212 56.392C63.6132 56.4027 63.8425 56.408 64.1092 56.408C64.4505 56.408 64.7332 56.408 64.9572 56.408C65.1918 56.3973 65.3838 56.3867 65.5332 56.376C65.6932 56.3653 65.8158 56.36 65.9012 56.36C65.9972 56.3493 66.0825 56.344 66.1572 56.344C66.4132 56.344 66.5998 56.44 66.7172 56.632C66.8345 56.8133 66.9465 57.128 67.0532 57.576C66.7438 57.544 66.4878 57.5227 66.2852 57.512C66.0932 57.5013 65.9225 57.496 65.7732 57.496C65.6665 57.496 65.5705 57.5013 65.4852 57.512C65.3998 57.512 65.3198 57.512 65.2452 57.512C64.8718 58.1093 64.4398 58.7547 63.9492 59.448C63.4692 60.1307 62.9465 60.7813 62.3812 61.4C61.8265 62.0187 61.2452 62.568 60.6372 63.048C60.0292 63.5387 59.4212 63.88 58.8132 64.072C58.3972 64.0293 58.0185 63.928 57.6772 63.768C57.3358 63.608 57.0372 63.4053 56.7812 63.16C56.5252 62.9253 56.3225 62.6533 56.1732 62.344C56.0238 62.024 55.9385 61.6827 55.9172 61.32C55.9278 60.8187 56.0292 60.3227 56.2212 59.832C56.4238 59.3307 56.6798 58.8667 56.9892 58.44C57.2985 58.0133 57.6452 57.6293 58.0292 57.288C58.4238 56.9467 58.8185 56.6747 59.2132 56.472C58.8185 56.3013 58.5358 56.0987 58.3652 55.864C58.2052 55.6293 58.1252 55.3733 58.1252 55.096C58.1252 54.712 58.2585 54.312 58.5252 53.896C58.8025 53.4693 59.1438 53.0747 59.5492 52.712C59.9545 52.3493 60.3865 52.04 60.8452 51.784C61.3145 51.5173 61.7412 51.352 62.1252 51.288C62.2318 51.3093 62.3812 51.3787 62.5732 51.496C62.7758 51.6027 62.9732 51.736 63.1652 51.896C63.3572 52.056 63.5278 52.2213 63.6772 52.392C63.8372 52.552 63.9278 52.6907 63.9492 52.808C63.9278 52.936 63.8798 53.08 63.8052 53.24C63.7412 53.4 63.6558 53.56 63.5492 53.72C63.4425 53.8693 63.3305 54.0133 63.2132 54.152C63.0958 54.2907 62.9785 54.4027 62.8612 54.488C62.7545 54.456 62.6905 54.4027 62.6692 54.328C62.7972 54.2 62.9198 54.0187 63.0372 53.784C63.1545 53.5387 63.2132 53.3093 63.2132 53.096C63.2132 52.9787 63.1865 52.904 63.1332 52.872C63.0798 52.8293 62.9945 52.808 62.8772 52.808C62.5785 52.808 62.2478 52.9253 61.8852 53.16C61.5225 53.3947 61.1812 53.688 60.8612 54.04C60.5518 54.392 60.2905 54.7707 60.0772 55.176C59.8638 55.5707 59.7572 55.9333 59.7572 56.264C59.8745 56.2747 60.0132 56.312 60.1732 56.376C60.3438 56.4293 60.5092 56.4987 60.6692 56.584C60.8292 56.6693 60.9678 56.76 61.0852 56.856C61.2132 56.952 61.2932 57.0373 61.3252 57.112C60.8025 57.24 60.3172 57.4907 59.8692 57.864C59.4318 58.2373 59.0532 58.664 58.7332 59.144C58.4132 59.624 58.1625 60.1253 57.9812 60.648C57.8105 61.1707 57.7252 61.64 57.7252 62.056C57.7252 62.4293 57.8052 62.7387 57.9652 62.984C58.1252 63.2187 58.3758 63.336 58.7172 63.336C59.0052 63.336 59.3145 63.24 59.6452 63.048C59.9865 62.8667 60.3332 62.6213 60.6852 62.312C61.0478 61.992 61.4052 61.6347 61.7572 61.24C62.1198 60.8347 62.4665 60.424 62.7972 60.008C63.1385 59.5813 63.4532 59.1653 63.7412 58.76C64.0398 58.344 64.3065 57.9653 64.5412 57.624C64.4452 57.6453 64.3385 57.6613 64.2212 57.672C64.1145 57.6827 63.9865 57.688 63.8372 57.688ZM31.3054 90.624C31.0387 90.5173 30.8787 90.3147 30.8254 90.016C30.7827 89.728 30.6014 89.4933 30.2814 89.312C30.3667 88.768 30.4627 88.2187 30.5694 87.664C30.676 87.1093 30.8094 86.48 30.9694 85.776C31.14 85.0613 31.348 84.2347 31.5934 83.296C31.8494 82.3467 32.1694 81.2 32.5534 79.856C32.2014 79.856 31.924 79.8613 31.7214 79.872C31.5187 79.8827 31.3214 79.904 31.1294 79.936C31.0867 79.8933 31.0494 79.8347 31.0174 79.76C30.996 79.6853 30.9854 79.616 30.9854 79.552C31.092 79.5093 31.3107 79.456 31.6414 79.392C31.972 79.3173 32.3347 79.2533 32.7294 79.2C32.9854 78.3893 33.2787 77.664 33.6094 77.024C33.94 76.3733 34.2974 75.8187 34.6814 75.36C35.0654 74.9013 35.4707 74.5493 35.8974 74.304C36.324 74.0587 36.756 73.936 37.1934 73.936C37.3214 73.936 37.444 73.9467 37.5614 73.968C37.6787 73.9787 37.7694 73.984 37.8334 73.984C37.9294 73.9093 38.0574 73.8453 38.2174 73.792C38.3774 73.728 38.516 73.696 38.6334 73.696C38.7614 73.696 38.9267 73.7653 39.1294 73.904C39.044 74.0533 38.9534 74.256 38.8574 74.512C38.7614 74.768 38.6814 75.0187 38.6174 75.264C38.3507 76.0533 38.068 76.5653 37.7694 76.8C37.652 76.8 37.588 76.6453 37.5774 76.336C37.5667 76.112 37.5347 75.8933 37.4814 75.68C37.4387 75.584 37.4067 75.4987 37.3854 75.424C37.3747 75.3493 37.3694 75.2533 37.3694 75.136C37.3694 75.072 37.3747 74.9973 37.3854 74.912C37.396 74.816 37.4174 74.6613 37.4494 74.448C37.268 74.448 37.0654 74.56 36.8414 74.784C36.628 75.008 36.3987 75.328 36.1534 75.744C35.9187 76.1493 35.6787 76.6347 35.4334 77.2C35.188 77.7653 34.9534 78.3893 34.7294 79.072L36.0734 79.024C36.1267 79.0773 36.1694 79.2 36.2014 79.392C36.244 79.5733 36.2707 79.7653 36.2814 79.968L34.5214 79.872C34.116 81.0773 33.7374 82.2293 33.3854 83.328C33.0334 84.4267 32.7187 85.44 32.4414 86.368C32.164 87.296 31.924 88.1227 31.7214 88.848C31.5294 89.584 31.3907 90.176 31.3054 90.624ZM37.7196 86.56C37.1116 86.496 36.6263 86.2293 36.2636 85.76C35.9009 85.2907 35.7196 84.6933 35.7196 83.968C35.7196 83.5413 35.7836 83.0987 35.9116 82.64C36.0396 82.1813 36.2209 81.7387 36.4556 81.312C36.6903 80.8747 36.9676 80.464 37.2876 80.08C37.6076 79.696 37.9543 79.3653 38.3276 79.088C38.9143 78.6507 39.4636 78.432 39.9756 78.432C40.3169 78.6133 40.6529 78.992 40.9836 79.568C41.0369 79.568 41.0849 79.568 41.1276 79.568C41.1703 79.5573 41.2183 79.552 41.2716 79.552C41.8369 79.552 42.1196 80.0533 42.1196 81.056C42.1196 81.728 42.0076 82.368 41.7836 82.976C41.5703 83.5733 41.2663 84.1173 40.8716 84.608C40.4876 85.0987 40.0236 85.5147 39.4796 85.856C38.9463 86.1867 38.3596 86.4213 37.7196 86.56ZM38.5356 81.52C38.3543 81.7653 38.1836 82.032 38.0236 82.32C37.8636 82.608 37.7249 82.9013 37.6076 83.2C37.4903 83.488 37.3996 83.7707 37.3356 84.048C37.2716 84.3147 37.2396 84.5547 37.2396 84.768C37.2396 85.024 37.2823 85.2693 37.3676 85.504C37.4529 85.7387 37.5489 85.872 37.6556 85.904C38.1356 85.7973 38.5729 85.6 38.9676 85.312C39.3729 85.0133 39.7196 84.6453 40.0076 84.208C40.3063 83.7707 40.5356 83.2747 40.6956 82.72C40.8663 82.1653 40.9516 81.5733 40.9516 80.944C40.9516 80.6667 40.9356 80.448 40.9036 80.288C40.8716 80.128 40.8183 79.9893 40.7436 79.872C40.2743 80.0107 39.8529 80.2347 39.4796 80.544C39.1169 80.8533 38.8023 81.1787 38.5356 81.52ZM47.2461 85.648C47.0434 85.4773 46.9048 85.264 46.8301 85.008C46.7661 84.752 46.7341 84.5333 46.7341 84.352C46.7341 84.128 46.7608 83.936 46.8141 83.776C46.7714 83.776 46.6754 83.8613 46.5261 84.032C46.3768 84.2027 46.2114 84.4053 46.0301 84.64C45.8594 84.8747 45.6888 85.104 45.5181 85.328C45.3474 85.552 45.2194 85.7173 45.1341 85.824C44.9954 85.9733 44.8621 86.0907 44.7341 86.176C44.6168 86.2613 44.5208 86.3093 44.4461 86.32C44.2754 86.3093 44.0941 86.272 43.9021 86.208C43.7208 86.1547 43.5448 86.0747 43.3741 85.968C43.2141 85.8613 43.0701 85.7333 42.9421 85.584C42.8248 85.4347 42.7448 85.264 42.7021 85.072C42.7021 84.7733 42.7074 84.528 42.7181 84.336C42.7394 84.144 42.7768 83.936 42.8301 83.712C42.9261 83.3067 43.0648 82.848 43.2461 82.336C43.4381 81.824 43.6568 81.3227 43.9021 80.832C44.1474 80.3307 44.4194 79.8667 44.7181 79.44C45.0274 79.0027 45.3528 78.6613 45.6941 78.416C45.7901 78.416 45.9021 78.4267 46.0301 78.448C46.1581 78.4587 46.2861 78.4853 46.4141 78.528C46.5528 78.5707 46.6808 78.624 46.7981 78.688C46.9261 78.7413 47.0328 78.816 47.1181 78.912C47.0221 79.0187 46.7768 79.376 46.3821 79.984C45.9981 80.592 45.5661 81.4667 45.0861 82.608C45.0328 82.7253 44.9688 82.896 44.8941 83.12C44.8194 83.344 44.7448 83.5787 44.6701 83.824C44.5954 84.0693 44.5314 84.3093 44.4781 84.544C44.4354 84.7787 44.4141 84.9653 44.4141 85.104C44.4141 85.1893 44.4248 85.2533 44.4461 85.296C44.4781 85.3387 44.5048 85.3707 44.5261 85.392C44.6861 85.328 44.8888 85.152 45.1341 84.864C45.3794 84.576 45.7208 84.1333 46.1581 83.536C46.2648 83.3867 46.3874 83.216 46.5261 83.024C46.6754 82.832 46.8248 82.6293 46.9741 82.416C47.1234 82.192 47.2621 81.9627 47.3901 81.728C47.5288 81.4933 47.6408 81.2587 47.7261 81.024C47.7688 80.896 47.8221 80.7467 47.8861 80.576C47.9608 80.3947 48.0461 80.208 48.1421 80.016C48.2488 79.824 48.3661 79.632 48.4941 79.44C48.6328 79.2373 48.7928 79.0507 48.9741 78.88C49.1128 78.88 49.2621 78.896 49.4221 78.928C49.5821 78.96 49.7314 79.0027 49.8701 79.056C50.0194 79.0987 50.1474 79.152 50.2541 79.216C50.3608 79.2693 50.4408 79.328 50.4941 79.392C50.3021 79.8613 50.0888 80.3253 49.8541 80.784C49.6194 81.2427 49.4008 81.696 49.1981 82.144C48.9954 82.5813 48.8248 83.0187 48.6861 83.456C48.5474 83.8933 48.4781 84.32 48.4781 84.736C48.4781 84.96 48.4941 85.1573 48.5261 85.328C48.5688 85.488 48.6114 85.6267 48.6541 85.744C48.6968 85.8507 48.7341 85.9413 48.7661 86.016C48.8088 86.0907 48.8301 86.1547 48.8301 86.208C48.8301 86.2187 48.8194 86.2347 48.7981 86.256C48.7874 86.2667 48.7768 86.272 48.7661 86.272C48.6914 86.272 48.5954 86.256 48.4781 86.224C48.3608 86.192 48.2274 86.144 48.0781 86.08C47.9394 86.0267 47.7954 85.9627 47.6461 85.888C47.5074 85.8133 47.3741 85.7333 47.2461 85.648ZM53.3924 78.24C53.6697 78.3253 53.931 78.5173 54.1764 78.816C54.4217 79.104 54.603 79.424 54.7204 79.776C54.603 80.064 54.4217 80.4107 54.1764 80.816C53.931 81.2213 53.6857 81.6373 53.4404 82.064C53.195 82.48 52.971 82.88 52.7684 83.264C52.5764 83.6373 52.4644 83.9467 52.4324 84.192C52.603 84.0107 52.7897 83.8027 52.9924 83.568C53.2057 83.3227 53.4084 83.0827 53.6004 82.848C53.803 82.6027 53.9897 82.384 54.1604 82.192C54.331 81.9893 54.4644 81.84 54.5604 81.744C54.763 81.5307 55.003 81.2853 55.2804 81.008C55.5577 80.72 55.8457 80.4533 56.1444 80.208C56.4537 79.952 56.763 79.7387 57.0724 79.568C57.3817 79.3867 57.6644 79.296 57.9204 79.296C58.1977 79.296 58.427 79.392 58.6084 79.584C58.8004 79.7653 58.9497 79.9573 59.0564 80.16C59.0564 80.1813 59.0137 80.2133 58.9284 80.256C58.8537 80.288 58.7417 80.3893 58.5924 80.56C58.443 80.752 58.2724 81.0187 58.0804 81.36C57.899 81.6907 57.7177 82.0533 57.5364 82.448C57.3657 82.832 57.2217 83.2267 57.1044 83.632C56.987 84.0373 56.9284 84.4053 56.9284 84.736C56.9284 85.0027 56.9604 85.1733 57.0244 85.248C57.099 85.3227 57.2004 85.36 57.3284 85.36C57.4457 85.36 57.5684 85.3333 57.6964 85.28C57.8244 85.2267 57.9257 85.2 58.0004 85.2C58.043 85.2213 58.075 85.2693 58.0964 85.344C58.1284 85.408 58.1444 85.4667 58.1444 85.52C58.059 85.5947 57.9577 85.6693 57.8404 85.744C57.723 85.8187 57.6004 85.888 57.4724 85.952C57.3444 86.016 57.2164 86.0693 57.0884 86.112C56.971 86.1547 56.8644 86.176 56.7684 86.176C56.459 86.176 56.203 86.128 56.0004 86.032C55.8084 85.9467 55.6537 85.8293 55.5364 85.68C55.4297 85.5307 55.355 85.3547 55.3124 85.152C55.2697 84.9387 55.2484 84.7147 55.2484 84.48C55.2484 84.352 55.259 84.208 55.2804 84.048C55.3017 83.888 55.3444 83.7013 55.4084 83.488C55.4724 83.264 55.563 83.0027 55.6804 82.704C55.7977 82.3947 55.947 82.0267 56.1284 81.6C56.107 81.6 55.963 81.6747 55.6964 81.824C55.4297 81.9733 55.1417 82.2027 54.8324 82.512C54.331 82.992 53.8777 83.4667 53.4724 83.936C53.0777 84.4053 52.6724 84.928 52.2564 85.504C52.0217 85.8347 51.8137 86.112 51.6324 86.336C51.4617 86.5707 51.3124 86.7253 51.1844 86.8C50.9604 86.672 50.795 86.4907 50.6884 86.256C50.5817 86.032 50.5017 85.7973 50.4484 85.552C50.4484 85.3493 50.475 85.0933 50.5284 84.784C50.5924 84.4747 50.6724 84.1333 50.7684 83.76C50.875 83.376 51.003 82.976 51.1524 82.56C51.3017 82.144 51.467 81.728 51.6484 81.312C52.0537 80.3733 52.4217 79.6373 52.7524 79.104C53.0937 78.5707 53.307 78.2827 53.3924 78.24ZM62.929 78.528C63.1423 78.528 63.3876 78.592 63.665 78.72C63.9423 78.848 64.1876 79.0133 64.401 79.216C64.3476 78.7893 64.2783 78.3893 64.193 78.016C64.1183 77.632 64.001 77.2373 63.841 76.832C63.6916 76.4267 63.489 75.984 63.233 75.504C62.977 75.024 62.657 74.4747 62.273 73.856C62.305 73.76 62.3743 73.648 62.481 73.52C62.5983 73.392 62.7263 73.2747 62.865 73.168C63.0143 73.0507 63.1636 72.9493 63.313 72.864C63.473 72.7787 63.6223 72.7253 63.761 72.704C64.0596 73.0347 64.3423 73.4507 64.609 73.952C64.8756 74.4427 65.1103 74.976 65.313 75.552C65.5156 76.1173 65.6703 76.704 65.777 77.312C65.8943 77.92 65.953 78.5013 65.953 79.056C65.953 79.6107 65.889 80.1813 65.761 80.768C65.6436 81.3547 65.473 81.9307 65.249 82.496C65.0356 83.0507 64.785 83.5787 64.497 84.08C64.209 84.5813 63.8943 85.0293 63.553 85.424C63.2223 85.8187 62.8756 86.1387 62.513 86.384C62.1503 86.64 61.7876 86.8 61.425 86.864C60.689 86.7787 60.1236 86.5387 59.729 86.144C59.345 85.76 59.153 85.2267 59.153 84.544C59.153 84.1813 59.2063 83.7867 59.313 83.36C59.4303 82.9333 59.5796 82.512 59.761 82.096C59.953 81.6693 60.1716 81.2587 60.417 80.864C60.673 80.4587 60.9396 80.096 61.217 79.776C61.505 79.456 61.793 79.184 62.081 78.96C62.369 78.736 62.6516 78.592 62.929 78.528ZM61.297 86.224C61.6703 86.096 62.0436 85.8133 62.417 85.376C62.7903 84.9387 63.1263 84.4267 63.425 83.84C63.7236 83.2427 63.9636 82.608 64.145 81.936C64.337 81.2533 64.433 80.5973 64.433 79.968C64.433 79.7867 64.433 79.6747 64.433 79.632C64.433 79.5893 64.4276 79.5467 64.417 79.504C64.161 79.6107 63.889 79.792 63.601 80.048C63.313 80.304 63.025 80.6027 62.737 80.944C62.449 81.2747 62.177 81.6373 61.921 82.032C61.665 82.4267 61.4356 82.8213 61.233 83.216C61.0303 83.6107 60.8703 83.9893 60.753 84.352C60.6356 84.7147 60.577 85.0347 60.577 85.312C60.577 85.8453 60.817 86.1493 61.297 86.224Z" fill="black"/>
</svg>
